<svg xmlns="http://www.w3.org/2000/svg" xmlns:xlink="http://www.w3.org/1999/xlink" width="500" zoomAndPan="magnify" viewBox="0 0 375 374.999991" height="500" preserveAspectRatio="xMidYMid meet" version="1.0"><defs><g/><clipPath id="b958f789a3"><path d="M 193 137 L 215.941406 137 L 215.941406 160 L 193 160 Z M 193 137 " clip-rule="nonzero"/></clipPath><clipPath id="c24a749c55"><path d="M 88.328125 143 L 159 143 L 159 256.433594 L 88.328125 256.433594 Z M 88.328125 143 " clip-rule="nonzero"/></clipPath><clipPath id="1dbcb66eef"><path d="M 65.941406 112.5 L 163 112.5 L 163 183 L 65.941406 183 Z M 65.941406 112.5 " clip-rule="nonzero"/></clipPath></defs><g clip-path="url(#b958f789a3)"><path fill="#000000" d="M 204.632812 137.949219 L 208.121094 146.164062 L 215.9375 146.164062 L 210.28125 151.679688 L 211.621094 159.464844 L 204.632812 155.78125 L 197.636719 159.464844 L 198.972656 151.679688 L 193.324219 146.164062 L 201.132812 146.164062 L 204.632812 137.949219 " fill-opacity="1" fill-rule="nonzero"/></g><path fill="#000000" d="M 179.375 115.703125 L 181.726562 121.238281 L 187 121.238281 L 183.1875 124.957031 L 184.089844 130.195312 L 179.375 127.71875 L 174.671875 130.195312 L 175.5625 124.957031 L 171.757812 121.238281 L 177.023438 121.238281 L 179.375 115.703125 " fill-opacity="1" fill-rule="nonzero"/><path fill="#000000" d="M 163.449219 157.261719 L 164.996094 160.898438 L 168.453125 160.898438 L 165.949219 163.328125 L 166.546875 166.773438 L 163.449219 165.148438 L 160.363281 166.773438 L 160.957031 163.328125 L 158.457031 160.898438 L 161.910156 160.898438 L 163.449219 157.261719 " fill-opacity="1" fill-rule="nonzero"/><g clip-path="url(#c24a749c55)"><path fill="#000000" d="M 97.457031 192.121094 C 92.457031 221.46875 111.082031 249.402344 139.53125 256.433594 C 138.148438 256.300781 136.75 256.117188 135.351562 255.871094 C 104.601562 250.644531 83.910156 221.449219 89.148438 190.703125 C 94.386719 159.953125 123.570312 139.253906 154.320312 144.492188 C 155.71875 144.738281 157.101562 145.027344 158.457031 145.359375 C 129.28125 142.578125 102.460938 162.761719 97.457031 192.121094 " fill-opacity="1" fill-rule="evenodd"/></g><path fill="#000000" d="M 182.847656 235.671875 C 136.347656 262.152344 90.453125 197.410156 130.828125 162.296875 C 129.535156 163.042969 128.257812 163.84375 127.015625 164.730469 C 106.65625 179.167969 101.847656 207.378906 116.277344 227.738281 C 130.714844 248.097656 158.929688 252.898438 179.289062 238.46875 C 180.53125 237.585938 181.71875 236.652344 182.847656 235.671875 " fill-opacity="1" fill-rule="evenodd"/><g clip-path="url(#1dbcb66eef)"><path fill="#000000" d="M 148.601562 129.089844 L 151.40625 135.871094 C 149.195312 135.632812 146.984375 135.519531 144.777344 135.519531 C 129.691406 135.519531 114.984375 140.878906 103.351562 150.605469 C 99.488281 153.832031 96.050781 157.480469 93.066406 161.457031 L 90.128906 154.347656 L 89.761719 153.464844 L 86.910156 153.265625 L 77.625 152.597656 L 71.003906 152.125 L 70.742188 152.109375 L 70.742188 171.804688 C 71.421875 172.207031 71.886719 172.941406 71.886719 173.78125 C 71.886719 174.496094 71.554688 175.144531 71.027344 175.554688 C 70.941406 175.632812 70.84375 175.703125 70.742188 175.757812 L 70.742188 177.917969 L 73.144531 182.726562 L 65.941406 182.726562 L 68.300781 178.003906 L 68.300781 175.886719 C 67.617188 175.496094 67.15625 174.761719 67.15625 173.910156 C 67.15625 173.117188 67.558594 172.417969 68.179688 172.003906 C 68.222656 171.96875 68.257812 171.933594 68.300781 171.910156 C 68.351562 171.875 68.398438 171.839844 68.457031 171.804688 L 68.457031 151.953125 L 108.011719 114.320312 L 152.527344 113.210938 L 162.59375 112.957031 L 148.601562 129.089844 " fill-opacity="1" fill-rule="evenodd"/></g><g fill="#000000" fill-opacity="1"><g transform="translate(151.314803, 221.313272)"><g><path d="M 13.234375 -44.046875 L 13.234375 -8.8125 L 28.40625 -8.8125 L 28.40625 0 L 3.203125 0 L 3.203125 -44.046875 Z M 13.234375 -44.046875 "/></g></g></g><g fill="#000000" fill-opacity="1"><g transform="translate(177.477631, 221.313272)"><g><path d="M 30.90625 -12.390625 L 11.046875 -12.390625 C 11.046875 -10.460938 11.671875 -9.035156 12.921875 -8.109375 C 14.171875 -7.191406 15.523438 -6.734375 16.984375 -6.734375 C 18.515625 -6.734375 19.722656 -6.9375 20.609375 -7.34375 C 21.492188 -7.75 22.507812 -8.554688 23.65625 -9.765625 L 30.484375 -6.359375 C 27.640625 -1.585938 22.90625 0.796875 16.28125 0.796875 C 12.15625 0.796875 8.613281 -0.613281 5.65625 -3.4375 C 2.707031 -6.269531 1.234375 -9.675781 1.234375 -13.65625 C 1.234375 -17.644531 2.707031 -21.0625 5.65625 -23.90625 C 8.613281 -26.757812 12.15625 -28.1875 16.28125 -28.1875 C 20.625 -28.1875 24.15625 -26.929688 26.875 -24.421875 C 29.601562 -21.910156 30.96875 -18.328125 30.96875 -13.671875 C 30.96875 -13.023438 30.945312 -12.597656 30.90625 -12.390625 Z M 11.3125 -17.625 L 21.734375 -17.625 C 21.515625 -19.039062 20.953125 -20.128906 20.046875 -20.890625 C 19.140625 -21.660156 17.972656 -22.046875 16.546875 -22.046875 C 14.984375 -22.046875 13.738281 -21.632812 12.8125 -20.8125 C 11.882812 -20 11.382812 -18.9375 11.3125 -17.625 Z M 11.3125 -17.625 "/></g></g></g><g fill="#000000" fill-opacity="1"><g transform="translate(205.669428, 221.313272)"><g><path d="M 5.078125 -3.390625 C 2.515625 -6.179688 1.234375 -9.601562 1.234375 -13.65625 C 1.234375 -17.71875 2.515625 -21.15625 5.078125 -23.96875 C 7.640625 -26.78125 10.894531 -28.1875 14.84375 -28.1875 C 18.46875 -28.1875 21.457031 -27.046875 23.8125 -24.765625 L 23.8125 -27.390625 L 33.265625 -27.390625 L 33.265625 0 L 23.921875 0 L 23.921875 -3.09375 L 23.8125 -3.09375 C 21.457031 -0.5 18.46875 0.796875 14.84375 0.796875 C 10.894531 0.796875 7.640625 -0.597656 5.078125 -3.390625 Z M 13.109375 -18.3125 C 11.878906 -17.101562 11.265625 -15.554688 11.265625 -13.671875 C 11.265625 -11.785156 11.851562 -10.242188 13.03125 -9.046875 C 14.207031 -7.859375 15.753906 -7.265625 17.671875 -7.265625 C 19.523438 -7.265625 21.046875 -7.867188 22.234375 -9.078125 C 23.429688 -10.285156 24.03125 -11.816406 24.03125 -13.671875 C 24.03125 -15.554688 23.414062 -17.101562 22.1875 -18.3125 C 20.957031 -19.519531 19.453125 -20.125 17.671875 -20.125 C 15.859375 -20.125 14.335938 -19.519531 13.109375 -18.3125 Z M 13.109375 -18.3125 "/></g></g></g><g fill="#000000" fill-opacity="1"><g transform="translate(238.132745, 221.313272)"><g><path d="M 3.203125 0 L 3.203125 -27.390625 L 12.65625 -27.390625 L 12.65625 -23.4375 L 12.765625 -23.4375 C 12.828125 -23.582031 12.9375 -23.757812 13.09375 -23.96875 C 13.257812 -24.1875 13.609375 -24.5625 14.140625 -25.09375 C 14.679688 -25.625 15.253906 -26.101562 15.859375 -26.53125 C 16.460938 -26.957031 17.242188 -27.335938 18.203125 -27.671875 C 19.160156 -28.015625 20.140625 -28.1875 21.140625 -28.1875 C 22.171875 -28.1875 23.1875 -28.046875 24.1875 -27.765625 C 25.1875 -27.484375 25.914062 -27.195312 26.375 -26.90625 L 27.125 -26.484375 L 23.171875 -18.46875 C 21.992188 -19.46875 20.359375 -19.96875 18.265625 -19.96875 C 17.117188 -19.96875 16.132812 -19.71875 15.3125 -19.21875 C 14.5 -18.71875 13.921875 -18.113281 13.578125 -17.40625 C 13.242188 -16.695312 13.003906 -16.09375 12.859375 -15.59375 C 12.722656 -15.09375 12.65625 -14.703125 12.65625 -14.421875 L 12.65625 0 Z M 3.203125 0 "/></g></g></g><g fill="#000000" fill-opacity="1"><g transform="translate(260.71817, 221.313272)"><g><path d="M 3.203125 0 L 3.203125 -27.390625 L 12.65625 -27.390625 L 12.65625 -24.5 L 12.765625 -24.5 C 15.210938 -26.957031 17.828125 -28.1875 20.609375 -28.1875 C 21.960938 -28.1875 23.304688 -28.007812 24.640625 -27.65625 C 25.972656 -27.300781 27.253906 -26.75 28.484375 -26 C 29.710938 -25.25 30.707031 -24.1875 31.46875 -22.8125 C 32.238281 -21.445312 32.625 -19.859375 32.625 -18.046875 L 32.625 0 L 23.171875 0 L 23.171875 -15.484375 C 23.171875 -16.910156 22.71875 -18.15625 21.8125 -19.21875 C 20.90625 -20.289062 19.722656 -20.828125 18.265625 -20.828125 C 16.835938 -20.828125 15.546875 -20.273438 14.390625 -19.171875 C 13.234375 -18.066406 12.65625 -16.835938 12.65625 -15.484375 L 12.65625 0 Z M 3.203125 0 "/></g></g></g><g fill="#000000" fill-opacity="1"><g transform="translate(292.006813, 221.313272)"><g/></g></g><g fill="#000000" fill-opacity="1"><g transform="translate(302.578604, 221.313272)"><g><path d="M 4.109375 -42.65625 C 5.210938 -43.757812 6.53125 -44.3125 8.0625 -44.3125 C 9.59375 -44.3125 10.910156 -43.757812 12.015625 -42.65625 C 13.117188 -41.550781 13.671875 -40.234375 13.671875 -38.703125 C 13.671875 -37.171875 13.117188 -35.851562 12.015625 -34.75 C 10.910156 -33.65625 9.59375 -33.109375 8.0625 -33.109375 C 6.53125 -33.109375 5.210938 -33.65625 4.109375 -34.75 C 3.003906 -35.851562 2.453125 -37.171875 2.453125 -38.703125 C 2.453125 -40.234375 3.003906 -41.550781 4.109375 -42.65625 Z M 3.203125 -27.390625 L 3.203125 0 L 12.65625 0 L 12.65625 -27.390625 Z M 3.203125 -27.390625 "/></g></g></g><g fill="#000000" fill-opacity="1"><g transform="translate(314.698816, 221.313272)"><g><path d="M 3.203125 0 L 3.203125 -27.390625 L 12.65625 -27.390625 L 12.65625 -24.5 L 12.765625 -24.5 C 15.210938 -26.957031 17.828125 -28.1875 20.609375 -28.1875 C 21.960938 -28.1875 23.304688 -28.007812 24.640625 -27.65625 C 25.972656 -27.300781 27.253906 -26.75 28.484375 -26 C 29.710938 -25.25 30.707031 -24.1875 31.46875 -22.8125 C 32.238281 -21.445312 32.625 -19.859375 32.625 -18.046875 L 32.625 0 L 23.171875 0 L 23.171875 -15.484375 C 23.171875 -16.910156 22.71875 -18.15625 21.8125 -19.21875 C 20.90625 -20.289062 19.722656 -20.828125 18.265625 -20.828125 C 16.835938 -20.828125 15.546875 -20.273438 14.390625 -19.171875 C 13.234375 -18.066406 12.65625 -16.835938 12.65625 -15.484375 L 12.65625 0 Z M 3.203125 0 "/></g></g></g></svg>