<svg xmlns="http://www.w3.org/2000/svg" xmlns:xlink="http://www.w3.org/1999/xlink" width="102" zoomAndPan="magnify" viewBox="0 0 76.5 30.000001" height="40" preserveAspectRatio="xMidYMid meet" version="1.0"><defs><clipPath id="90ccecfddd"><path d="M 39.007812 6.234375 L 43.183594 6.234375 L 43.183594 10.421875 L 39.007812 10.421875 Z M 39.007812 6.234375 " clip-rule="nonzero"/></clipPath><clipPath id="c463647afd"><path d="M 19.964844 7.328125 L 32.824219 7.328125 L 32.824219 27.964844 L 19.964844 27.964844 Z M 19.964844 7.328125 " clip-rule="nonzero"/></clipPath><clipPath id="3c6a6c149e"><path d="M 15.890625 1.777344 L 33.550781 1.777344 L 33.550781 14.605469 L 15.890625 14.605469 Z M 15.890625 1.777344 " clip-rule="nonzero"/></clipPath></defs><g clip-path="url(#90ccecfddd)"><path fill="#44a6d9" d="M 41.125 6.410156 L 41.761719 7.902344 L 43.183594 7.902344 L 42.152344 8.90625 L 42.398438 10.324219 L 41.125 9.652344 L 39.851562 10.324219 L 40.09375 8.90625 L 39.066406 7.902344 L 40.488281 7.902344 L 41.125 6.410156 " fill-opacity="1" fill-rule="nonzero"/></g><path fill="#264790" d="M 36.53125 2.359375 L 36.957031 3.367188 L 37.917969 3.367188 L 37.222656 4.042969 L 37.386719 4.996094 L 36.53125 4.546875 L 35.675781 4.996094 L 35.835938 4.042969 L 35.144531 3.367188 L 36.101562 3.367188 L 36.53125 2.359375 " fill-opacity="1" fill-rule="nonzero"/><path fill="#44a6d9" d="M 33.632812 9.921875 L 33.914062 10.582031 L 34.542969 10.582031 L 34.085938 11.027344 L 34.195312 11.652344 L 33.632812 11.355469 L 33.070312 11.652344 L 33.179688 11.027344 L 32.722656 10.582031 L 33.351562 10.582031 L 33.632812 9.921875 " fill-opacity="1" fill-rule="nonzero"/><g clip-path="url(#c463647afd)"><path fill="#44a6d9" d="M 21.625 16.265625 C 20.714844 21.601562 24.105469 26.683594 29.28125 27.964844 C 29.027344 27.941406 28.773438 27.90625 28.519531 27.863281 C 22.925781 26.910156 19.160156 21.601562 20.113281 16.007812 C 21.066406 10.410156 26.378906 6.644531 31.972656 7.597656 C 32.226562 7.644531 32.476562 7.695312 32.722656 7.757812 C 27.414062 7.25 22.535156 10.921875 21.625 16.265625 " fill-opacity="1" fill-rule="evenodd"/></g><path fill="#264790" d="M 37.160156 24.1875 C 28.703125 29.003906 20.351562 17.226562 27.699219 10.839844 C 27.460938 10.972656 27.230469 11.121094 27.003906 11.28125 C 23.300781 13.90625 22.425781 19.039062 25.050781 22.742188 C 27.675781 26.449219 32.808594 27.320312 36.515625 24.695312 C 36.738281 24.535156 36.957031 24.367188 37.160156 24.1875 " fill-opacity="1" fill-rule="evenodd"/><g clip-path="url(#3c6a6c149e)"><path fill="#264790" d="M 30.929688 4.796875 L 31.441406 6.03125 C 31.039062 5.988281 30.636719 5.964844 30.234375 5.964844 C 27.492188 5.964844 24.816406 6.941406 22.699219 8.710938 C 21.996094 9.296875 21.371094 9.960938 20.828125 10.683594 L 20.292969 9.390625 L 20.226562 9.230469 L 19.707031 9.195312 L 18.019531 9.074219 L 16.8125 8.988281 L 16.765625 8.984375 L 16.765625 12.566406 C 16.890625 12.640625 16.972656 12.773438 16.972656 12.925781 C 16.972656 13.058594 16.914062 13.175781 16.816406 13.25 C 16.800781 13.265625 16.785156 13.277344 16.765625 13.285156 L 16.765625 13.679688 L 17.203125 14.554688 L 15.890625 14.554688 L 16.320312 13.695312 L 16.320312 13.308594 C 16.195312 13.238281 16.113281 13.105469 16.113281 12.949219 C 16.113281 12.804688 16.1875 12.679688 16.300781 12.605469 C 16.308594 12.597656 16.3125 12.589844 16.320312 12.585938 C 16.332031 12.582031 16.339844 12.574219 16.351562 12.566406 L 16.351562 8.957031 L 23.546875 2.109375 L 31.644531 1.90625 L 33.476562 1.859375 L 30.929688 4.796875 " fill-opacity="1" fill-rule="evenodd"/></g><path fill="#264790" d="M 31.382812 14.210938 L 31.382812 20.621094 L 34.144531 20.621094 L 34.144531 22.222656 L 29.558594 22.222656 L 29.558594 14.210938 Z M 31.382812 14.210938 " fill-opacity="1" fill-rule="nonzero"/><path fill="#264790" d="M 39.359375 19.96875 L 35.746094 19.96875 C 35.746094 20.320312 35.859375 20.582031 36.085938 20.75 C 36.3125 20.917969 36.558594 21 36.824219 21 C 37.105469 21 37.324219 20.960938 37.484375 20.886719 C 37.644531 20.816406 37.832031 20.667969 38.039062 20.449219 L 39.28125 21.066406 C 38.765625 21.9375 37.902344 22.371094 36.699219 22.371094 C 35.949219 22.371094 35.304688 22.113281 34.765625 21.597656 C 34.230469 21.082031 33.960938 20.464844 33.960938 19.738281 C 33.960938 19.015625 34.230469 18.390625 34.765625 17.875 C 35.304688 17.355469 35.949219 17.097656 36.699219 17.097656 C 37.488281 17.097656 38.132812 17.324219 38.625 17.78125 C 39.121094 18.238281 39.371094 18.890625 39.371094 19.738281 C 39.371094 19.855469 39.367188 19.933594 39.359375 19.96875 Z M 35.792969 19.019531 L 37.691406 19.019531 C 37.652344 18.761719 37.546875 18.5625 37.382812 18.421875 C 37.21875 18.285156 37.007812 18.214844 36.746094 18.214844 C 36.460938 18.214844 36.234375 18.289062 36.066406 18.4375 C 35.898438 18.585938 35.808594 18.777344 35.792969 19.019531 Z M 35.792969 19.019531 " fill-opacity="1" fill-rule="nonzero"/><path fill="#264790" d="M 39.789062 21.609375 C 39.324219 21.101562 39.089844 20.476562 39.089844 19.738281 C 39.089844 19 39.324219 18.375 39.789062 17.863281 C 40.253906 17.351562 40.847656 17.097656 41.566406 17.097656 C 42.226562 17.097656 42.769531 17.304688 43.199219 17.71875 L 43.199219 17.242188 L 44.917969 17.242188 L 44.917969 22.222656 L 43.21875 22.222656 L 43.21875 21.660156 L 43.199219 21.660156 C 42.769531 22.132812 42.226562 22.371094 41.566406 22.371094 C 40.847656 22.371094 40.253906 22.117188 39.789062 21.609375 Z M 41.25 18.894531 C 41.027344 19.113281 40.914062 19.394531 40.914062 19.738281 C 40.914062 20.082031 41.019531 20.359375 41.234375 20.578125 C 41.449219 20.792969 41.730469 20.902344 42.082031 20.902344 C 42.417969 20.902344 42.695312 20.792969 42.910156 20.574219 C 43.128906 20.351562 43.238281 20.074219 43.238281 19.738281 C 43.238281 19.394531 43.125 19.113281 42.902344 18.894531 C 42.679688 18.671875 42.40625 18.5625 42.082031 18.5625 C 41.75 18.5625 41.472656 18.671875 41.25 18.894531 Z M 41.25 18.894531 " fill-opacity="1" fill-rule="nonzero"/><path fill="#264790" d="M 45.355469 22.222656 L 45.355469 17.242188 L 47.074219 17.242188 L 47.074219 17.960938 L 47.09375 17.960938 C 47.105469 17.933594 47.125 17.902344 47.152344 17.863281 C 47.183594 17.824219 47.246094 17.753906 47.34375 17.660156 C 47.441406 17.5625 47.546875 17.476562 47.65625 17.398438 C 47.765625 17.320312 47.910156 17.25 48.082031 17.191406 C 48.257812 17.128906 48.4375 17.097656 48.617188 17.097656 C 48.804688 17.097656 48.988281 17.121094 49.171875 17.171875 C 49.355469 17.222656 49.484375 17.277344 49.570312 17.328125 L 49.707031 17.40625 L 48.988281 18.863281 C 48.773438 18.683594 48.476562 18.589844 48.09375 18.589844 C 47.886719 18.589844 47.707031 18.636719 47.558594 18.726562 C 47.410156 18.820312 47.304688 18.929688 47.242188 19.058594 C 47.179688 19.1875 47.136719 19.296875 47.109375 19.386719 C 47.085938 19.476562 47.074219 19.550781 47.074219 19.601562 L 47.074219 22.222656 Z M 45.355469 22.222656 " fill-opacity="1" fill-rule="nonzero"/><path fill="#264790" d="M 49.464844 22.222656 L 49.464844 17.242188 L 51.183594 17.242188 L 51.183594 17.765625 L 51.203125 17.765625 C 51.648438 17.320312 52.125 17.097656 52.628906 17.097656 C 52.875 17.097656 53.121094 17.128906 53.363281 17.191406 C 53.605469 17.257812 53.839844 17.359375 54.0625 17.496094 C 54.285156 17.628906 54.46875 17.824219 54.605469 18.074219 C 54.746094 18.324219 54.816406 18.613281 54.816406 18.941406 L 54.816406 22.222656 L 53.097656 22.222656 L 53.097656 19.40625 C 53.097656 19.148438 53.015625 18.921875 52.847656 18.726562 C 52.683594 18.535156 52.46875 18.433594 52.203125 18.433594 C 51.945312 18.433594 51.710938 18.535156 51.5 18.738281 C 51.289062 18.9375 51.183594 19.160156 51.183594 19.40625 L 51.183594 22.222656 Z M 49.464844 22.222656 " fill-opacity="1" fill-rule="nonzero"/><path fill="#264790" d="M 57.242188 14.464844 C 57.445312 14.261719 57.683594 14.164062 57.964844 14.164062 C 58.242188 14.164062 58.480469 14.261719 58.683594 14.464844 C 58.882812 14.664062 58.984375 14.90625 58.984375 15.183594 C 58.984375 15.460938 58.882812 15.703125 58.683594 15.902344 C 58.480469 16.101562 58.242188 16.199219 57.964844 16.199219 C 57.683594 16.199219 57.445312 16.101562 57.242188 15.902344 C 57.042969 15.703125 56.941406 15.460938 56.941406 15.183594 C 56.941406 14.90625 57.042969 14.664062 57.242188 14.464844 Z M 57.078125 17.242188 L 57.078125 22.222656 L 58.800781 22.222656 L 58.800781 17.242188 Z M 57.078125 17.242188 " fill-opacity="1" fill-rule="nonzero"/><path fill="#264790" d="M 59.285156 22.222656 L 59.285156 17.242188 L 61.003906 17.242188 L 61.003906 17.765625 L 61.023438 17.765625 C 61.46875 17.320312 61.945312 17.097656 62.449219 17.097656 C 62.695312 17.097656 62.941406 17.128906 63.183594 17.191406 C 63.425781 17.257812 63.660156 17.359375 63.882812 17.496094 C 64.105469 17.628906 64.289062 17.824219 64.425781 18.074219 C 64.566406 18.324219 64.636719 18.613281 64.636719 18.941406 L 64.636719 22.222656 L 62.917969 22.222656 L 62.917969 19.40625 C 62.917969 19.148438 62.835938 18.921875 62.671875 18.726562 C 62.503906 18.535156 62.289062 18.433594 62.023438 18.433594 C 61.765625 18.433594 61.53125 18.535156 61.320312 18.738281 C 61.109375 18.9375 61.003906 19.160156 61.003906 19.40625 L 61.003906 22.222656 Z M 59.285156 22.222656 " fill-opacity="1" fill-rule="nonzero"/></svg>